<svg width="58" height="47" viewBox="0 0 58 47" fill="none" xmlns="http://www.w3.org/2000/svg">
<path d="M27.0938 21.877H30.8334V24.8688H27.0938V21.877Z" fill="#F25C19"/>
<path d="M30.8372 19.7108V22.6282C30.8382 23.0409 30.8276 24.1735 30.8388 24.4572C30.8539 24.8426 30.8483 26.7071 30.8483 26.9282L19.4713 40.0065C18.6849 40.0065 17.8925 39.9878 17.1 40.0065C16.1887 40.0283 15.1386 40.0696 14.0951 40.0696C12.885 39.94 12.0127 39.4843 11.8699 37.8775V25.368V23.6225V22.6915V17.9205V8.32014C11.9478 7.40666 12.4209 7.16176 13.2959 7.08844C13.986 7.03026 14.7575 7.03724 15.4499 7.02095C16.8393 6.9872 18.2357 7.04073 19.6263 7.03724C20.1372 7.43406 23.1639 11.1276 23.4374 11.0799L27.601 6.5485C27.7546 6.33555 27.8803 6.1354 27.6638 5.9143C26.0184 4.26072 24.5673 2.40698 22.9381 0.742929C22.752 0.55325 22.4575 0.194835 22.212 0.136652C20.7621 0.0819589 19.3098 0.115706 17.8587 0.112215C15.8886 0.107561 13.7439 0.0284307 11.7715 0.17389C8.19788 0.438044 5.42949 3.46476 5.20141 6.98953C5.00475 10.0162 5.29334 13.3374 5.27356 16.3804C5.259 18.611 4.08733 20.1904 2.05876 20.6664C1.56207 20.7829 1.05563 20.8638 0.553998 20.9568C0.221157 21.0186 0.000955236 21.0424 0.000955236 21.0424V23.1439C-0.00137211 23.3091 0.00445723 25.8748 0.000966211 26.0552C0.000966211 26.0552 0.448289 26.0548 0.882548 26.1202C1.13493 26.1582 1.3859 26.2095 1.63582 26.2614C3.54433 26.6572 5.0685 28.1948 5.20723 30.0803C5.44928 33.363 5.07806 36.9716 5.27589 40.2881C5.80769 44.3807 9.77931 46.9094 13.7358 46.7372H21.9898C22.1375 46.722 22.2527 46.7081 22.3796 46.6196C26.3384 42.2733 30.2134 37.8281 34.1036 33.4107C36.0528 31.1974 38.6443 29.0191 39.3075 26.054C40.4095 21.1258 38.827 18.3784 35.5314 14.984C35.294 14.7396 34.9449 14.4824 34.7029 14.2194H34.583L30.4031 18.8032C30.2821 19.2046 30.7953 19.3222 30.8372 19.7108Z" fill="#F9FAFB"/>
<path d="M27.2278 26.0749C27.2278 25.4183 27.2174 22.8024 27.2174 22.175V19.6502L38.2285 7.17825C38.3086 7.0876 38.4141 7.02327 38.5314 6.9937C38.5803 6.98135 38.6305 6.97522 38.681 6.9755C40.7259 6.98687 42.8799 7.03845 44.8202 6.98557C45.6977 7.09147 46.1375 7.76291 46.1945 8.59377C46.1976 10.0658 46.1976 11.5786 46.1976 13.0332C46.1976 16.5824 46.1945 17.3969 46.1976 20.6355C46.1976 21.329 46.2186 22.7429 46.1976 22.9826C46.1976 23.448 46.1911 23.6808 46.1945 24.2044C46.1976 25.8336 46.1976 26.8809 46.1911 28.5205C46.1801 31.2447 46.1911 34.6775 46.1934 37.4622L46.1927 37.4786C46.1787 37.7962 46.1565 38.2981 46.1119 38.5863C46.0538 38.9644 45.8063 39.3285 45.5174 39.5975C45.3946 39.7118 45.2325 39.771 45.0654 39.7861C42.9885 39.973 40.8996 39.8726 38.8203 39.9967L35.0094 35.7968C34.959 35.7412 34.8951 35.6995 34.8239 35.6758C34.7556 35.653 34.6808 35.6603 34.6182 35.696L34.5921 35.7108C34.5446 35.7379 34.5012 35.7714 34.4631 35.8105L30.2301 40.1538C30.1308 40.2517 30.1291 40.4114 30.2262 40.5114L30.2743 40.5611C32.0338 42.3997 33.6536 44.5094 35.4364 46.3108C35.6703 46.547 35.7925 46.6413 36.1416 46.6832C39.4871 46.5109 43.1667 46.995 46.468 46.5552C49.4179 46.163 52.7193 43.3329 52.9194 40.255C53.1091 37.3563 52.9462 33.9351 52.9194 30.9875C52.9136 30.3708 52.8356 30.2114 52.9986 29.5492C53.5594 27.2661 55.6773 26.0629 57.9302 26.0105L57.9023 20.995C57.2867 20.8938 56.7014 20.8333 56.1044 20.6355C54.3403 20.0513 53.0335 18.4536 52.8519 16.5929C52.7775 13.5406 53.1754 10.1031 52.9101 7.08332C52.8752 6.69582 52.7472 6.14424 52.646 5.76139C51.6671 2.05968 50.0743 3.57156e-05 45.1328 0L36.4511 3.57156e-05C35.8202 0.045919 35.7321 0.137029 35.3284 0.55425L35.3107 0.572562C30.4101 6.25274 25.2637 11.7248 20.4579 17.4776C20.0851 17.924 19.7458 18.4009 19.5081 18.9317C18.2277 21.79 18.3126 25.0949 19.579 27.9748C20.148 29.2699 21.9261 31.2842 22.9385 32.3548C23.0014 32.4212 23.2073 32.6492 23.2655 32.6609L23.941 31.9111L27.5766 27.998C27.7425 27.8194 27.8653 27.5718 27.7087 27.3851C27.5967 27.2516 27.4354 27.1312 27.3303 27.0166C27.24 26.9182 27.2278 26.7794 27.2278 26.6459V26.0749Z" fill="#F9FAFB"/>
</svg>
