<svg width="380" height="823" viewBox="0 0 380 823" fill="none" xmlns="http://www.w3.org/2000/svg">
<path d="M380 790C380 794.418 376.418 798 372 798H337.288C334.811 798 332.803 800.008 332.803 802.485C332.803 804.963 330.795 806.971 328.317 806.971H212.485C210.008 806.971 208 804.963 208 802.485C208 800.008 205.992 798 203.515 798H148C143.582 798 140 801.582 140 806V815C140 819.418 136.418 823 132 823H8C3.58172 823 0 819.418 0 815V22C0 17.5817 3.58172 14 8 14H107C110.866 14 114 10.866 114 7C114 3.13401 117.134 0 121 0H372C376.418 0 380 3.58172 380 8V790Z" fill="url(#paint0_linear_1477_6803)" fill-opacity="0.8"/>
<defs>
<linearGradient id="paint0_linear_1477_6803" x1="318.475" y1="1046.57" x2="-324.706" y2="730.866" gradientUnits="userSpaceOnUse">
<stop stop-color="#FF9933"/>
<stop offset="0.405989" stop-color="#CC0066"/>
<stop offset="1" stop-color="#2D41C5"/>
</linearGradient>
</defs>
</svg>
